{"title":"Raaz 3 2012 DVDRip x264 AAC - ViZNU [P2PDL]","uid":7969320,"size":531951744,"categoryP":"video","categoryS":"movies","magnet":"?xt=urn:btih:60ec6739991952041ad3b36beecea67dfe81d8d9&amp;dn=Raaz+3+2012+DVDRip+x264+AAC+-+ViZNU+%5BP2PDL%5D&amp;tr=udp%3A%2F%2Ftracker.openbittorrent.com%3A80&amp;tr=udp%3A%2F%2Fopen.demonii.com%3A1337&amp;tr=udp%3A%2F%2Ftracker.coppersurfer.tk%3A6969&amp;tr=udp%3A%2F%2Fexodus.desync.com%3A6969","seeders":0,"leechers":1,"uploader":"ValidusVyto","files":-1,"time":1356789622,"description":"Raaz 3 2012 DVDRip x264 AAC - ViZNU [P2PDL]\n &lt;a href=&quot;\nhttp://www.imdb.com/title/tt2140315/&quot; rel=&quot;nofollow&quot; target=&quot;_NEW&quot;&gt;\nhttp://www.imdb.com/title/tt2140315/&lt;/a&gt;\nThe film director must save his love from the black magic of a wicked woman who has become blind in\nlove, lust and passion.\n\nGeneral\nMovie name                     : Raaz 3\nFormat                         : MPEG-4\nFormat profile                 : Base Media\nCodec ID                       : isom\nFile size                      : 502 MiB\nDuration                       : 2h 20mn\nOverall bit rate mode          : Variable\nOverall bit rate               : 501 Kbps\nSource                         : DVD9 NTSC\n\nVideo\nID                             : 1\nFormat                         : AVC\nFormat/Info                    : Advanced Video Codec\nDuration                       : 2h 20mn\nBit rate                       : 465 Kbps\nMaximum bit rate               : 4 214 Kbps\nWidth                          : 608 pixels\nHeight                         : 256 pixels\nDisplay aspect ratio           : 2.40:1\nFrame rate mode                : Constant\nFrame rate                     : 23.976 fps\nStream size                    : 466 MiB (93%)\nWriting library                : x264 core 129\n\nAudio\nID                             : 2\nFormat                         : AAC\nFormat/Info                    : Advanced Audio Codec\nFormat profile                 : LC\nCodec ID                       : 40\nDuration                       : 2h 20mn\nBit rate mode                  : Variable\nBit rate                       : 32.0 Kbps\nChannel(s)                     : 2 channels\nChannel positions              : Front: L R\nSampling rate                  : 44.1 KHz\nCompression mode               : Lossy\nStream size                    : 32.1 MiB (6%)\nLanguage                       : Hindi\n\nSubtitle                       : N/a\n\n\nScreens:\n &lt;a href=&quot;\nhttp://www.shotpix.com/images/22786711379245090092.png&quot; rel=&quot;nofollow&quot; target=&quot;_NEW&quot;&gt;\nhttp://www.shotpix.com/images/22786711379245090092.png&lt;/a&gt; &lt;a href=&quot;\nhttp://www.shotpix.com/images/30461705078072167050.png&quot; rel=&quot;nofollow&quot; target=&quot;_NEW&quot;&gt;\nhttp://www.shotpix.com/images/30461705078072167050.png&lt;/a&gt; &lt;a href=&quot;\nhttp://www.shotpix.com/images/04942160053894825427.png&quot; rel=&quot;nofollow&quot; target=&quot;_NEW&quot;&gt;\nhttp://www.shotpix.com/images/04942160053894825427.png&lt;/a&gt; &lt;a href=&quot;\nhttp://www.shotpix.com/images/88738763067581699964.png&quot; rel=&quot;nofollow&quot; target=&quot;_NEW&quot;&gt;\nhttp://www.shotpix.com/images/88738763067581699964.png&lt;/a&gt; &lt;a href=&quot;\nhttp://www.shotpix.com/images/37069764197634767671.png&quot; rel=&quot;nofollow&quot; target=&quot;_NEW&quot;&gt;\nhttp://www.shotpix.com/images/37069764197634767671.png&lt;/a&gt; &lt;a href=&quot;\nhttp://www.shotpix.com/images/42638467379273083569.png&quot; rel=&quot;nofollow&quot; target=&quot;_NEW&quot;&gt;\nhttp://www.shotpix.com/images/42638467379273083569.png&lt;/a&gt;\n\n\n\n----------------------------------------------------------------------------------------------------\n\n\nRecommend to you to use latest version of VLC player. Install K-Lite Codec Pack or shark007 codecs\nin case of any kind of problem in playback (For non-VLC Media Player users). Alternatively, install\nCore AVC codecs, the fastest decoder that there is coupled with Community Center Codec Pack and play\non Windows Media Player Classic. Check sample to be sure.\nEnjoy!\n\nGreets to: Vitamin_X, a2zRG, srkfan, staff members at ExtraTorrent, TPB,KAT, 1337x, PublicHD, Ahashare,\nBTScene, SilverTorrent, TorrentMafia, P2PDL, and all others.\n\nEncoder Notes: Looking For Early Access To Anything You Can Provide DVDScr, R5, DVDR, BluRay, Direct\nAudio, Early Music Releases, Seedboxes, Dedicated Servers anything u can provide, Advance / Promo CDs/\nDVDs. If You Got anything to offer contact me at &quot;&lt;a class=&quot;__cf_email__&quot; href=&quot;/cdn-cgi/l/email-protection&quot; data-cfemail=&quot;0d7d7f6a4d65787e65236e6260&quot;&gt;[email&amp;#160;protected]&lt;/a&gt;&lt;script cf-hash='f9e31' type=&quot;text/javascript&quot;&gt;\n/* &lt;![CDATA[ */!function(){try{var t=&quot;currentScript&quot;in document?document.currentScript:function(){for(var t=document.getElementsByTagName(&quot;script&quot;),e=t.length;e--;)if(t[e].getAttribute(&quot;cf-hash&quot;))return t[e]}();if(t&amp;&amp;t.previousSibling){var e,r,n,i,c=t.previousSibling,a=c.getAttribute(&quot;data-cfemail&quot;);if(a){for(e=&quot;&quot;,r=parseInt(a.substr(0,2),16),n=2;a.length-n;n+=2)i=parseInt(a.substr(n,2),16)^r,e+=String.fromCharCode(i);e=document.createTextNode(e),c.parentNode.replaceChild(e,c)}}}catch(u){}}();/* ]]&gt; */&lt;/script&gt;&quot;.\n\nFacebook Fan Page: www . facebook . com / p2pdl","torrent":{"xt":"urn:btih:60ec6739991952041ad3b36beecea67dfe81d8d9","amp;dn":"Raaz+3+2012+DVDRip+x264+AAC+-+ViZNU+%5BP2PDL%5D","amp;tr":["udp%3A%2F%2Ftracker.openbittorrent.com%3A80","udp%3A%2F%2Fopen.demonii.com%3A1337","udp%3A%2F%2Ftracker.coppersurfer.tk%3A6969","udp%3A%2F%2Fexodus.desync.com%3A6969"],"infoHash":"60ec6739991952041ad3b36beecea67dfe81d8d9","infoHashBuffer":{"type":"Buffer","data":[96,236,103,57,153,25,82,4,26,211,179,107,238,206,166,125,254,129,216,217]},"announce":[],"urlList":[]}}